<svg width="33" height="34" viewBox="0 0 33 34" fill="none" xmlns="http://www.w3.org/2000/svg">
<path d="M29.7313 10.2437C29.5774 9.66947 29.2753 9.14568 28.8554 8.72479C28.4354 8.3039 27.9123 8.00067 27.3384 7.84543C25.2117 7.26147 16.7035 7.25196 16.7035 7.25196C16.7035 7.25196 8.19669 7.24246 6.06863 7.80062C5.49543 7.96378 4.9738 8.27156 4.55381 8.69439C4.13383 9.11723 3.82959 9.64094 3.67031 10.2152C3.10944 12.3419 3.10401 16.7529 3.10401 16.7529C3.10401 16.7529 3.09857 21.1856 3.65537 23.2905C3.96773 24.4544 4.88441 25.3738 6.04962 25.6875C8.19805 26.2715 16.6831 26.281 16.6831 26.281C16.6831 26.281 25.1913 26.2905 27.318 25.7337C27.8915 25.5773 28.4144 25.2743 28.8351 24.8545C29.2559 24.4347 29.5601 23.9125 29.7177 23.3394C30.2799 21.2141 30.284 16.8045 30.284 16.8045C30.284 16.8045 30.3112 12.3705 29.7313 10.2437ZM13.982 20.8393L13.9888 12.691L21.0601 16.7719L13.982 20.8393Z" fill="#5B5B5B"/>
</svg>
