<svg width="29" height="29" viewBox="0 0 29 29" fill="none" xmlns="http://www.w3.org/2000/svg">
<path d="M24.937 18.2861L22.3382 8.03593C22.2698 7.76908 22.125 7.52798 21.9217 7.34214C21.7183 7.15631 21.4652 7.03383 21.1933 6.98969L18.0176 6.46833C17.6675 6.41202 17.3089 6.48793 17.0117 6.68131C16.7145 6.87468 16.4998 7.17169 16.4094 7.51457L16.3909 7.58943C16.379 7.63699 16.3771 7.68652 16.3853 7.73486C16.3936 7.7832 16.4119 7.82928 16.439 7.87015C16.4661 7.91102 16.5014 7.94578 16.5428 7.97221C16.5841 7.99863 16.6305 8.01613 16.6789 8.0236C17.4076 8.13055 18.1265 8.29607 18.8287 8.51854C19.0042 8.5715 19.153 8.68924 19.2449 8.84788C19.3368 9.00652 19.365 9.19418 19.3236 9.3728C19.2998 9.46588 19.2573 9.55311 19.1986 9.62914C19.1398 9.70517 19.0662 9.76839 18.9821 9.81491C18.8981 9.86143 18.8054 9.89027 18.7098 9.89966C18.6142 9.90905 18.5177 9.89878 18.4262 9.8695C15.821 9.07053 13.0366 9.06747 10.4296 9.86069C10.2532 9.92001 10.0607 9.9091 9.89213 9.83022C9.72354 9.75133 9.59181 9.61054 9.52431 9.43709C9.49222 9.34808 9.47839 9.25352 9.48364 9.15905C9.48889 9.06459 9.51311 8.97214 9.55487 8.88724C9.59662 8.80234 9.65505 8.72672 9.72666 8.66488C9.79827 8.60305 9.88161 8.55628 9.97169 8.52735C10.6826 8.30092 11.4106 8.13245 12.1487 8.0236C12.1972 8.01613 12.2436 7.99863 12.2849 7.97221C12.3262 7.94578 12.3616 7.91102 12.3887 7.87015C12.4158 7.82928 12.434 7.7832 12.4423 7.73486C12.4506 7.68652 12.4487 7.63699 12.4367 7.58943L12.4182 7.51457C12.3278 7.1714 12.1128 6.8742 11.8152 6.68093C11.5176 6.48766 11.1586 6.41218 10.8083 6.46921L7.63085 6.99057C7.35905 7.03464 7.10599 7.157 6.90265 7.34266C6.69931 7.52833 6.55451 7.76925 6.48597 8.03593L3.88709 18.2861C3.8056 18.6083 3.84107 18.949 3.98717 19.2475C4.13328 19.546 4.38055 19.783 4.68498 19.9163L10.5855 22.5328C10.7629 22.6116 10.9546 22.6534 11.1488 22.6555C11.3429 22.6576 11.5355 22.6199 11.7145 22.5448C11.8936 22.4698 12.0554 22.3589 12.1901 22.219C12.3247 22.0791 12.4293 21.9132 12.4975 21.7313L12.8048 20.8991C12.8231 20.8492 12.8299 20.7959 12.8247 20.7431C12.8195 20.6902 12.8024 20.6392 12.7747 20.5939C12.747 20.5486 12.7095 20.5101 12.6648 20.4814C12.6201 20.4526 12.5696 20.4344 12.5168 20.4279C11.6613 20.3243 10.8172 20.1415 9.99547 19.8819C9.82066 19.8288 9.6725 19.7114 9.58082 19.5534C9.48914 19.3953 9.46076 19.2084 9.50141 19.0303C9.52497 18.937 9.5674 18.8494 9.6261 18.7731C9.68479 18.6968 9.7585 18.6334 9.84268 18.5867C9.92685 18.54 10.0197 18.511 10.1155 18.5016C10.2113 18.4921 10.308 18.5024 10.3997 18.5318C13.0147 19.3327 15.8095 19.3327 18.4244 18.5318C18.516 18.5026 18.6126 18.4923 18.7082 18.5018C18.8039 18.5112 18.8966 18.5401 18.9806 18.5868C19.0647 18.6334 19.1383 18.6967 19.197 18.7728C19.2557 18.8489 19.2982 18.9363 19.3218 19.0294C19.3629 19.2077 19.3348 19.3949 19.2431 19.5532C19.1513 19.7115 19.0029 19.829 18.8278 19.8819C18.0063 20.1416 17.1626 20.3244 16.3073 20.4279C16.2546 20.4344 16.204 20.4526 16.1593 20.4814C16.1147 20.5101 16.0771 20.5486 16.0494 20.5939C16.0217 20.6392 16.0046 20.6902 15.9994 20.7431C15.9942 20.7959 16.001 20.8492 16.0193 20.8991L16.3267 21.7313C16.3949 21.9131 16.4996 22.0789 16.6342 22.2188C16.7689 22.3586 16.9307 22.4694 17.1098 22.5445C17.2888 22.6195 17.4813 22.6572 17.6754 22.6552C17.8695 22.6532 18.0612 22.6115 18.2386 22.5328L24.1391 19.9163C24.4436 19.783 24.6908 19.546 24.837 19.2475C24.9831 18.949 25.0185 18.6083 24.937 18.2861ZM11.2416 16.3143C11.0326 16.3143 10.8283 16.2523 10.6545 16.1362C10.4807 16.0201 10.3452 15.855 10.2653 15.6619C10.1853 15.4688 10.1643 15.2563 10.2051 15.0513C10.2459 14.8463 10.3465 14.658 10.4943 14.5102C10.6421 14.3624 10.8305 14.2618 11.0355 14.221C11.2405 14.1802 11.4529 14.2011 11.6461 14.2811C11.8392 14.3611 12.0042 14.4966 12.1203 14.6703C12.2365 14.8441 12.2984 15.0485 12.2984 15.2575C12.2984 15.5378 12.1871 15.8066 11.9889 16.0048C11.7907 16.203 11.5219 16.3143 11.2416 16.3143ZM17.5825 16.3143C17.3735 16.3143 17.1692 16.2523 16.9954 16.1362C16.8216 16.0201 16.6861 15.855 16.6061 15.6619C16.5261 15.4688 16.5052 15.2563 16.546 15.0513C16.5868 14.8463 16.6874 14.658 16.8352 14.5102C16.983 14.3624 17.1713 14.2618 17.3763 14.221C17.5813 14.1802 17.7938 14.2011 17.9869 14.2811C18.18 14.3611 18.3451 14.4966 18.4612 14.6703C18.5773 14.8441 18.6393 15.0485 18.6393 15.2575C18.6393 15.5378 18.528 15.8066 18.3298 16.0048C18.1316 16.203 17.8628 16.3143 17.5825 16.3143Z" fill="#5B5B5B"/>
</svg>
