<svg width="126" height="43" viewBox="0 0 126 43" fill="none" xmlns="http://www.w3.org/2000/svg">
<path fill-rule="evenodd" clip-rule="evenodd" d="M16.5047 3.28825C8.75 3.28825 2.46365 9.72757 2.46365 17.6709C2.46365 24.3142 6.8611 29.9072 12.8376 31.5584L13.5336 31.7194L13.3839 34.3242L12.1955 33.9961C5.17127 32.0536 0 25.4824 0 17.6709C0 8.33391 7.38945 0.764648 16.5047 0.764648C25.6199 0.764648 33.0093 8.33391 33.0093 17.6709C33.0093 27.0079 25.6199 34.5772 16.5047 34.5772H15.2728V10.9602H17.7365V31.9999C24.9149 31.3606 30.5457 25.1896 30.5457 17.6725C30.5457 9.72757 24.2593 3.28825 16.5047 3.28825Z" fill="#242424"/>
<path d="M57.1191 4.31854C56.4818 3.19076 55.6046 2.3032 54.5072 1.68888C53.4169 1.07456 52.1906 0.764648 50.8605 0.764648C49.5303 0.764648 48.3004 1.07456 47.203 1.68888C46.0984 2.3032 45.2177 3.19259 44.5803 4.31854C43.9394 5.45366 43.6172 6.77949 43.6172 8.25753C43.6172 9.73923 43.9412 11.0651 44.5803 12.2002C45.2212 13.3316 46.102 14.2155 47.203 14.8262C48.304 15.4405 49.5339 15.7541 50.8605 15.7541C52.187 15.7541 53.4133 15.4405 54.5072 14.8262C55.601 14.2155 56.4782 13.3298 57.1191 12.2002C57.76 11.0651 58.0822 9.73923 58.0822 8.25753C58.084 6.77949 57.76 5.45366 57.1191 4.31854ZM54.8974 10.9202C54.491 11.7014 53.9271 12.3157 53.2218 12.7503C52.5164 13.1886 51.7251 13.4105 50.8622 13.4105C49.9994 13.4105 49.2081 13.1886 48.5027 12.7503C47.7974 12.3157 47.2299 11.6996 46.8163 10.9202C46.4028 10.15 46.1933 9.25511 46.1933 8.25753C46.1933 7.26361 46.4028 6.36689 46.8163 5.59486C47.2299 4.81733 47.7974 4.20301 48.5027 3.76473C49.2117 3.32646 50.0065 3.10457 50.8622 3.10457C51.718 3.10457 52.5128 3.32646 53.2218 3.76473C53.9307 4.20301 54.491 4.8265 54.8974 5.60953C55.3038 6.39073 55.5097 7.28195 55.5097 8.25753C55.5079 9.25144 55.3038 10.1482 54.8974 10.9202Z" fill="#242424"/>
<path d="M70.3293 8.30139V15.5302H67.8445V9.34482C67.8445 8.35457 67.6207 7.60638 67.1821 7.12776C66.7435 6.64914 66.1491 6.40525 65.4205 6.40525C64.6579 6.40525 64.0367 6.66748 63.5748 7.18644C63.1111 7.70541 62.8838 8.4866 62.8838 9.57037V15.5302H60.3989V4.60263H62.5633L62.7549 6.86553L63.0395 6.3649C63.4531 5.64606 63.9454 5.13076 64.5147 4.83185C65.0893 4.52928 65.7446 4.37891 66.4642 4.37891C67.5974 4.37891 68.5391 4.72183 69.2552 5.40216C69.9659 6.077 70.3293 7.05258 70.3293 8.30139Z" fill="#242424"/>
<path d="M68.4601 27.2613C68.4601 26.2784 68.2256 25.378 67.7619 24.5913C67.3054 23.8028 66.6645 23.1775 65.8661 22.7264C65.0677 22.2771 64.169 22.0479 63.1933 22.0479C62.1908 22.0479 61.2688 22.2844 60.4596 22.7484C59.6468 23.2123 58.9952 23.8761 58.5244 24.7234C58.0535 25.5706 57.8154 26.5682 57.8154 27.6886C57.8154 28.8127 58.0607 29.825 58.5423 30.6905C59.0167 31.5634 59.6791 32.2456 60.5026 32.7132C61.3368 33.1845 62.2713 33.4247 63.2828 33.4247C65.2968 33.4247 66.8937 32.6618 68.0305 31.1581L66.4193 29.9423C66.1167 30.3843 65.7103 30.7309 65.2037 30.9748C64.6505 31.2407 64.0526 31.3764 63.4385 31.3764C62.8048 31.3764 62.2337 31.237 61.7307 30.9601C61.2312 30.6795 60.8356 30.3146 60.5437 29.8726C60.2555 29.4234 60.0944 28.9447 60.0586 28.4478L60.0443 28.2534H68.3957C68.4387 27.8995 68.4601 27.5676 68.4601 27.2613ZM60.1911 26.6103L60.2161 26.3994C60.3092 25.7209 60.6333 25.1506 61.1829 24.7014C61.7253 24.2557 62.4199 24.0265 63.2398 24.0265C64.0204 24.0265 64.6792 24.2594 65.2001 24.716C65.7247 25.1763 66.0272 25.7448 66.106 26.4031L66.1275 26.6103H60.1911Z" fill="#242424"/>
<path d="M55.3289 22.1004C54.7095 21.0166 53.8251 20.162 52.6883 19.5624C51.5479 18.9664 50.1999 18.6602 48.6818 18.6602H43.6172V33.2003H48.6818C50.2034 33.2003 51.5515 32.8941 52.6883 32.2944C53.8251 31.6984 54.7095 30.842 55.3289 29.7564C55.9483 28.6653 56.2598 27.3798 56.2598 25.9293C56.2598 24.4806 55.9483 23.1896 55.3289 22.1004ZM53.075 28.5168C52.665 29.2576 52.0832 29.839 51.3349 30.2442C50.5973 30.6495 49.7272 30.8549 48.7534 30.8549H46.1056V21.0001H48.7534C49.7093 21.0001 50.5776 21.2018 51.3241 21.6071C52.076 22.0087 52.665 22.5936 53.075 23.3418C53.4814 24.0753 53.6872 24.9446 53.6872 25.9238C53.6854 26.9104 53.4814 27.7814 53.075 28.5168Z" fill="#242424"/>
<path d="M88.1507 25.9723V33.2011H85.6659V26.8323C85.6659 25.9154 85.4529 25.2186 85.0286 24.762C84.6007 24.309 84.0296 24.0761 83.3314 24.0761C82.5688 24.0761 81.9512 24.3494 81.4857 24.883C81.0256 25.413 80.7947 26.1832 80.7947 27.1716V33.2029H78.3098V26.8342C78.3098 25.9209 78.0968 25.2241 77.6797 24.7675C77.2625 24.3109 76.6915 24.078 75.9754 24.078C75.2378 24.078 74.6309 24.3512 74.1619 24.8848C73.6982 25.4111 73.4601 26.2033 73.4601 27.2431V33.2029H70.9771V22.2754H73.1414L73.3276 24.5218L73.6158 24.0395C74.0401 23.317 74.5217 22.798 75.0373 22.4991C75.5618 22.2002 76.2063 22.0498 76.951 22.0498C77.7781 22.0498 78.5157 22.2332 79.1405 22.5981C79.7599 22.9594 80.2164 23.504 80.4957 24.2155L80.6497 24.6098L80.8215 24.2229C81.1491 23.5077 81.62 22.9594 82.2161 22.5981C82.8248 22.2332 83.5319 22.0498 84.3268 22.0498C85.4457 22.0498 86.373 22.3891 87.082 23.0621C87.7909 23.7296 88.1507 24.7088 88.1507 25.9723Z" fill="#242424"/>
<path d="M98.9333 23.0326C98.4732 22.708 97.9522 22.4623 97.3758 22.2954C96.8011 22.134 96.1709 22.0479 95.4871 22.0479C94.617 22.0479 93.7685 22.2551 92.9664 22.6585C92.2181 23.0381 91.5754 23.6011 91.0455 24.3273L92.6639 25.5504C92.9593 25.1084 93.3478 24.7509 93.8114 24.4886C94.3324 24.1934 94.8909 24.0467 95.4656 24.0467C96.1423 24.0467 96.7026 24.2264 97.1305 24.584C97.5763 24.9489 97.8001 25.4165 97.8001 25.9685V26.5755L95.2293 26.6708C93.8311 26.7185 92.6621 27.0431 91.7509 27.6354C90.8593 28.2204 90.4243 29.0804 90.4243 30.2577C90.4243 30.9619 90.6069 31.5322 90.9847 32.0035C91.3588 32.4785 91.8511 32.8397 92.4419 33.0689C93.0416 33.3018 93.6646 33.4192 94.2876 33.4192C95.727 33.4192 96.8691 32.9442 97.6891 32.0127L97.92 31.7504L98.2548 33.1955H100.287V26.2014C100.285 24.7344 99.8284 23.6708 98.9333 23.0326ZM97.7786 29.0933C97.7786 29.8085 97.5011 30.4191 96.9515 30.9124C96.4126 31.3984 95.6858 31.6459 94.8014 31.6459C94.2733 31.6459 93.8132 31.5102 93.4319 31.2407C93.0255 30.9601 92.8196 30.5548 92.8196 30.0395C92.8196 29.5096 93.0649 29.0749 93.5429 28.743C94.0066 28.4331 94.6976 28.2681 95.5963 28.2534L97.7786 28.1544V29.0933Z" fill="#242424"/>
<path d="M112.978 25.9722V33.201H110.493V27.0156C110.493 26.0253 110.269 25.2772 109.831 24.7985C109.392 24.3199 108.798 24.076 108.069 24.076C107.306 24.076 106.685 24.3383 106.223 24.8572C105.76 25.3762 105.532 26.1574 105.532 27.2412V33.201H103.047V22.2734H105.212L105.402 24.5345L105.686 24.0338C106.1 23.315 106.592 22.7997 107.161 22.5008C107.736 22.1982 108.391 22.0479 109.111 22.0479C110.244 22.0479 111.186 22.3908 111.902 23.0711C112.614 23.7478 112.978 24.7234 112.978 25.9722Z" fill="#242424"/>
<path d="M123.515 17.0801V23.7771L123.202 23.4342C122.864 23.0619 122.421 22.7337 121.886 22.4586C121.351 22.1817 120.789 22.0497 120.182 22.0497C119.183 22.0497 118.275 22.3046 117.484 22.8015C116.693 23.2985 116.073 23.9953 115.642 24.8645C115.203 25.7374 114.979 26.7093 114.979 27.7601C114.979 28.776 115.196 29.7351 115.628 30.6006C116.055 31.4625 116.657 32.1594 117.407 32.6636C118.163 33.1679 119.029 33.4265 119.978 33.4265C121.34 33.4265 122.491 32.9149 123.403 31.9045L123.637 31.6422L123.968 33.201H126V17.0801H123.515ZM123.281 29.6746C122.978 30.2302 122.572 30.6575 122.076 30.9454C121.587 31.2296 121.05 31.3763 120.49 31.3763C119.908 31.3763 119.357 31.2186 118.854 30.9087C118.354 30.6061 117.941 30.1679 117.631 29.6122C117.332 29.0566 117.178 28.4258 117.178 27.7362C117.178 27.0137 117.332 26.3701 117.631 25.8236C117.937 25.2826 118.347 24.8554 118.843 24.5601C119.346 24.2649 119.901 24.1182 120.49 24.1182C121.064 24.1182 121.609 24.2575 122.097 24.5344C122.593 24.8187 122.996 25.2386 123.292 25.7833C123.587 26.3242 123.737 26.9807 123.737 27.7362C123.739 28.4734 123.583 29.1263 123.281 29.6746Z" fill="#242424"/>
<path d="M44.1714 40.7529V36.3125H45.9476C46.4179 36.3125 46.7811 36.4133 47.0372 36.6149C47.2934 36.8164 47.4214 37.1019 47.4214 37.4715C47.4214 37.7486 47.3375 37.9795 47.1695 38.1643C47.0057 38.349 46.7769 38.4708 46.483 38.5296V38.4414C46.8105 38.4792 47.0666 38.5926 47.2514 38.7815C47.4403 38.9663 47.5348 39.2161 47.5348 39.531C47.5348 39.9257 47.4025 40.2281 47.138 40.438C46.8777 40.648 46.5082 40.7529 46.0295 40.7529H44.1714ZM44.6816 40.3309H45.9791C46.2982 40.3309 46.5502 40.2701 46.7349 40.1483C46.9239 40.0223 47.0183 39.8145 47.0183 39.5247C47.0183 39.2308 46.9239 39.023 46.7349 38.9012C46.5502 38.7752 46.2982 38.7122 45.9791 38.7122H44.6816V40.3309ZM44.6816 38.2965H45.872C46.2163 38.2965 46.4746 38.2294 46.6467 38.095C46.8189 37.9606 46.905 37.7675 46.905 37.5155C46.905 37.2552 46.8189 37.06 46.6467 36.9298C46.4746 36.7954 46.2163 36.7282 45.872 36.7282H44.6816V38.2965ZM49.4622 40.7529V38.6808L49.5756 39.0335L47.7365 36.3125H48.3411L49.8023 38.5233H49.6701L51.125 36.3125H51.7045L49.8716 39.0335L49.985 38.6808V40.7529H49.4622ZM53.3935 40.7529L55.3523 36.3125H55.8058L57.7961 40.7529H57.2544L56.7001 39.4869L56.9332 39.6192H54.2186L54.4705 39.4869L53.9288 40.7529H53.3935ZM55.5727 36.9109L54.5524 39.3043L54.4012 39.1909H56.7442L56.6308 39.3043L55.5853 36.9109H55.5727ZM58.4659 40.7529V36.3125H58.9887V40.7529H58.4659ZM60.0959 40.7529V36.3125H61.9098C62.3759 36.3125 62.737 36.4238 62.9931 36.6464C63.2493 36.8647 63.3773 37.1712 63.3773 37.5659C63.3773 37.8263 63.3186 38.0488 63.201 38.2336C63.0876 38.4141 62.926 38.5527 62.716 38.6493C62.5103 38.7458 62.2688 38.7941 61.9917 38.7941L62.1051 38.7122H62.231C62.4032 38.7122 62.5564 38.7542 62.6908 38.8382C62.8294 38.9222 62.9385 39.0629 63.0183 39.2602L63.6482 40.7529H63.075L62.4704 39.2854C62.399 39.0964 62.2919 38.9747 62.1491 38.9201C62.0064 38.8613 61.8279 38.8319 61.6138 38.8319H60.6186V40.7529H60.0959ZM60.6186 38.4225H61.8342C62.1701 38.4225 62.4242 38.3511 62.5963 38.2084C62.7727 38.0614 62.8609 37.8515 62.8609 37.5785C62.8609 37.3056 62.7727 37.0977 62.5963 36.955C62.4242 36.8122 62.1701 36.7408 61.8342 36.7408H60.6186V38.4225ZM64.4568 40.7529V36.3125H67.2911V36.7408H64.9669V38.284H67.1525V38.7185H64.9669V40.3183H67.2911V40.7529H64.4568ZM69.5148 40.7529L67.5811 36.3125H68.1417L69.8612 40.3372H69.6659L71.398 36.3125H71.9396L69.9934 40.7529H69.5148Z" fill="#242424"/>
</svg>
