<svg width="27" height="27" viewBox="0 0 27 27" fill="none" xmlns="http://www.w3.org/2000/svg">
<path d="M21.0316 4.08301C21.6018 4.08301 22.1488 4.30955 22.552 4.7128C22.9553 5.11605 23.1818 5.66297 23.1818 6.23325V21.285C23.1818 21.8553 22.9553 22.4022 22.552 22.8054C22.1488 23.2087 21.6018 23.4352 21.0316 23.4352H5.97984C5.40955 23.4352 4.86263 23.2087 4.45938 22.8054C4.05613 22.4022 3.82959 21.8553 3.82959 21.285V6.23325C3.82959 5.66297 4.05613 5.11605 4.45938 4.7128C4.86263 4.30955 5.40955 4.08301 5.97984 4.08301H21.0316ZM20.494 20.7474V15.0493C20.494 14.1197 20.1247 13.2282 19.4674 12.5709C18.8101 11.9136 17.9186 11.5444 16.9891 11.5444C16.0752 11.5444 15.0109 12.1034 14.4948 12.942V11.7486H11.4952V20.7474H14.4948V15.4471C14.4948 14.6192 15.1614 13.9419 15.9892 13.9419C16.3884 13.9419 16.7713 14.1005 17.0535 14.3827C17.3358 14.665 17.4944 15.0479 17.4944 15.4471V20.7474H20.494ZM8.00107 10.0607C8.4801 10.0607 8.93952 9.87039 9.27825 9.53166C9.61698 9.19294 9.80727 8.73352 9.80727 8.25448C9.80727 7.25462 9.00093 6.43753 8.00107 6.43753C7.51918 6.43753 7.05703 6.62896 6.71628 6.9697C6.37554 7.31045 6.18411 7.7726 6.18411 8.25448C6.18411 9.25435 7.0012 10.0607 8.00107 10.0607ZM9.49549 20.7474V11.7486H6.5174V20.7474H9.49549Z" fill="#5B5B5B"/>
</svg>
